HIERARCHY
ROOT root
{
	OFFSET	0	13.1	24.9
	CHANNELS 6  Xposition Yposition Zposition Xrotation Yrotation Zrotation
	JOINT spine_1
	{
		OFFSET	0	9.99999	0
		CHANNELS 3  Xrotation Yrotation Zrotation
		JOINT spine_2
		{
			OFFSET	0	112	-10
			CHANNELS 3  Xrotation Yrotation Zrotation
			JOINT spine_3
			{
				OFFSET	0	206.5	19.3
				CHANNELS 3  Xrotation Yrotation Zrotation
				JOINT spine_4
				{
					OFFSET	0	110.4	14.6
					CHANNELS 3  Xrotation Yrotation Zrotation
					JOINT neck_1
					{
						OFFSET	0	71.8	-50.3
						CHANNELS 3  Xrotation Yrotation Zrotation
						JOINT neck_2
						{
							OFFSET	0	86.2	-25.8
							CHANNELS 3  Xrotation Yrotation Zrotation
							JOINT head_ee
							{
								OFFSET	0	179.8	-8.7
								CHANNELS 3  Xrotation Yrotation Zrotation
								End Site
								{
									OFFSET	1	0	0
								}
							}
						}
					}
					JOINT left_clavicle
					{
						OFFSET	-43.2	22.4	-70.8
						CHANNELS 3  Xrotation Yrotation Zrotation
						JOINT left_shoulder
						{
							OFFSET	-93.9	-5.79999	48.7
							CHANNELS 3  Xrotation Yrotation Zrotation
							JOINT left_elbow
							{
								OFFSET	-291.4	-30.8	15.2
								CHANNELS 3  Xrotation Yrotation Zrotation
								JOINT left_lowarm_twist
								{
									OFFSET	-110.7	-3.89999	13.6
									CHANNELS 3  Xrotation Yrotation Zrotation
									JOINT left_hand
									{
										OFFSET	-110.7	-3.89999	13.6
										CHANNELS 3  Xrotation Yrotation Zrotation
										JOINT left_ee
										{
											OFFSET	-80.8	-5.10001	12.1
											CHANNELS 3  Xrotation Yrotation Zrotation
											End Site
											{
												OFFSET	1	0	0
											}
										}
									}
								}
							}
						}
					}
					JOINT right_clavicle
					{
						OFFSET	43.2	22.4	-70.8
						CHANNELS 3  Xrotation Yrotation Zrotation
						JOINT right_shoulder
						{
							OFFSET	93.9	-5.79999	48.7
							CHANNELS 3  Xrotation Yrotation Zrotation
							JOINT right_elbow
							{
								OFFSET	291.4	-30.8	15.2
								CHANNELS 3  Xrotation Yrotation Zrotation
								JOINT right_lowarm_twist
								{
									OFFSET	110.7	-3.89999	13.6
									CHANNELS 3  Xrotation Yrotation Zrotation
									JOINT right_hand
									{
										OFFSET	110.7	-3.89999	13.6
										CHANNELS 3  Xrotation Yrotation Zrotation
										JOINT right_ee
										{
											OFFSET	80.8	-5.10001	12.1
											CHANNELS 3  Xrotation Yrotation Zrotation
											End Site
											{
												OFFSET	1	0	0
											}
										}
									}
								}
							}
						}
					}
				}
			}
		}
	}
	JOINT left_hip
	{
		OFFSET	-82.8	-127.5	0.300001
		CHANNELS 3  Xrotation Yrotation Zrotation
		JOINT left_knee
		{
			OFFSET	-28.2	-396.7	2.2
			CHANNELS 3  Xrotation Yrotation Zrotation
			JOINT left_ankle
			{
				OFFSET	-11.7	-411.3	35.4
				CHANNELS 3  Xrotation Yrotation Zrotation
				JOINT left_toes
				{
					OFFSET	0	-60	-88.6
					CHANNELS 3  Xrotation Yrotation Zrotation
					JOINT left_foot_ee
					{
						OFFSET	-22.5	-16.5	-42.2
						CHANNELS 3  Xrotation Yrotation Zrotation
						End Site
						{
							OFFSET	1	0	0
						}
					}
				}
			}
		}
	}
	JOINT right_hip
	{
		OFFSET	82.8	-127.5	0.300001
		CHANNELS 3  Xrotation Yrotation Zrotation
		JOINT right_knee
		{
			OFFSET	28.2	-396.7	2.2
			CHANNELS 3  Xrotation Yrotation Zrotation
			JOINT right_ankle
			{
				OFFSET	11.7	-411.3	35.4
				CHANNELS 3  Xrotation Yrotation Zrotation
				JOINT right_toes
				{
					OFFSET	0	-60	-88.6
					CHANNELS 3  Xrotation Yrotation Zrotation
					JOINT right_foot_ee
					{
						OFFSET	22.5	-16.5	-42.2
						CHANNELS 3  Xrotation Yrotation Zrotation
						End Site
						{
							OFFSET	1	0	0
						}
					}
				}
			}
		}
	}
}
MOTION
Frames: 13
Frame Time: 0.02
2703.33 688.999 -539.565 164.203 -73.5706 166.943 -0.381874 -0.457046 -2.14586 -0.379369 -0.319606 -2.17058 -0.365506 0.157696 -2.1883 -0.372138 -0.189799 -2.18575 -11.9761 7.94437 6.59912 -11.9166 10.8188 8.55605 -0.0 0.0 -0.0 -1.52931 20.3521 0.141617 16.3081 -29.6023 76.7264 3.14793 -57.3165 1.72077 -33.3847 -2.27666 3.54621 -1.67616 3.82835 -9.4968 -0.0 0.0 -0.0 -0.221487 9.30566 1.5619 -15.4681 14.8868 -73.6048 0.755514 20.5188 -0.136749 51.6852 1.09208 6.29046 0.690799 -3.38117 -5.99432 0.0 0.0 0.0 -19.9993 19.9771 5.94861 -6.47805 0.212003 0.971059 39.9685 -2.78998 -4.89955 -8.82579 0.0 0.0 -0.0 0.0 -0.0 27.006 29.6924 -10.4008 -6.12816 -0.20337 -0.918057 7.29393 -4.78625 1.04779 -17.4963 0.0 0.0 0.0 0.0 0.0 
2720.47 689.656 -533.691 162.111 -75.5775 164.71 -0.406178 -0.57619 -2.09341 -0.403848 -0.441844 -2.12581 -0.385635 0.0293381 -2.17102 -0.392075 -0.313822 -2.14843 -11.6316 8.02684 6.84373 -11.5587 10.7611 8.78221 -0.0 0.0 -0.0 -1.73992 19.7748 -0.258627 15.5687 -29.8637 77.5884 3.11987 -57.0832 1.69718 -32.5641 -2.19728 3.4771 -1.48428 3.13839 -8.53123 -0.0 0.0 -0.0 0.0867709 9.14401 0.905738 -15.3077 15.2371 -73.4793 0.812286 21.9189 -0.157298 51.6392 1.08865 6.28567 0.86593 -2.84611 -6.94569 0.0 0.0 0.0 -21.4091 20.4965 5.86648 -4.16709 0.149002 0.622024 36.4915 -1.7963 -4.5767 -9.7294 0.0 0.0 -0.0 0.0 -0.0 27.7507 29.5369 -10.6157 -10.7754 -0.291526 -1.62555 8.95113 -5.56323 1.27798 -16.5748 0.0 0.0 0.0 0.0 0.0 
2736.23 690.591 -530.305 162.324 -74.4191 164.608 -0.422217 -0.363435 -2.00118 -0.42002 -0.235385 -2.02024 -0.410232 0.209007 -2.02314 -0.415926 -0.113065 -2.03076 -11.299 8.13847 6.78697 -11.2268 10.9553 8.72949 -0.0 0.0 -0.0 -2.06437 19.6691 -0.755962 14.3149 -29.8926 77.4077 2.91819 -55.3151 1.52957 -32.0201 -2.14521 3.43066 -1.35192 3.34009 -7.55524 -0.0 0.0 -0.0 0.173798 9.79988 0.801841 -13.1286 15.2191 -73.3372 0.795175 21.4997 -0.150969 52.1475 1.12681 6.33842 0.706 -2.01623 -5.54363 0.0 0.0 0.0 -21.2753 20.9615 5.90274 -7.89188 0.243584 1.18572 38.9674 -2.74689 -4.81191 -8.59803 0.0 0.0 -0.0 0.0 -0.0 26.0711 29.92 -10.5145 -9.98861 -0.280642 -1.50531 7.37273 -4.41404 1.05926 -17.9651 0.0 0.0 0.0 0.0 0.0 
2753.73 695.076 -526.19 163.244 -74.834 165.682 -0.447874 -0.384763 -2.02942 -0.445619 -0.254873 -2.04978 -0.434937 0.197278 -2.05612 -0.440813 -0.129853 -2.06148 -10.2368 8.00688 6.42995 -10.1651 10.7703 8.26245 -0.0 0.0 -0.0 -2.19979 19.1635 -1.0444 13.0652 -29.7206 78.1522 2.7353 -53.5625 1.38077 -31.8103 -2.12524 3.41262 -1.28443 4.64947 -6.51344 -0.0 0.0 -0.0 0.670142 9.68095 -0.239033 -12.6551 15.1741 -72.7096 0.696748 19.0421 -0.11686 51.8571 1.10495 6.30833 0.879563 0.105263 -5.84161 0.0 0.0 0.0 -22.0498 20.4407 5.80176 -6.14856 0.203882 0.921146 32.8355 -0.240788 -4.2069 -9.03675 0.0 0.0 -0.0 0.0 -0.0 25.6274 29.3877 -10.8023 -10.3015 -0.285168 -1.55311 8.50473 -8.4457 1.21502 -16.6156 0.0 0.0 0.0 0.0 0.0 
2774.41 699.786 -527.298 161.867 -73.9422 163.744 -0.586215 -0.234621 -1.79677 -0.584427 -0.119832 -1.80805 -0.579455 0.281043 -1.79009 -0.583927 -0.00514752 -1.81201 -8.95464 8.73513 5.60739 -8.9067 12.5012 7.52953 -0.0 0.0 -0.0 -2.30801 19.296 -1.18295 11.7527 -30.1215 78.8993 2.47941 -50.8402 1.17852 -31.7937 -2.12366 3.41119 -1.10167 3.87011 -5.65308 -0.0 0.0 -0.0 0.646772 10.7248 -0.0759533 -12.3827 15.9846 -72.9826 0.668897 18.3328 -0.107936 51.2638 1.06076 6.2465 0.991813 -0.68147 -6.9159 0.0 0.0 0.0 -21.7286 20.3487 5.70024 -9.96334 0.280265 1.50145 29.7885 -0.0960728 -3.88843 -8.64507 0.0 0.0 -0.0 0.0 -0.0 25.0413 29.5405 -9.98596 -14.5864 -0.320834 -2.20943 10.4041 -6.16608 1.47742 -16.0092 0.0 0.0 0.0 0.0 0.0 
2795.27 699.598 -520.207 160.71 -72.6171 162.157 -0.689821 -0.141041 -1.61232 -0.688375 -0.0381729 -1.61803 -0.686366 0.321853 -1.58616 -0.689871 0.0673425 -1.61708 -8.98304 8.82518 6.21896 -8.91451 12.2506 8.14955 -0.0 0.0 -0.0 -2.4668 20.9174 -1.12598 9.89588 -30.3009 78.6965 2.30776 -48.8156 1.04734 -31.4239 -2.08864 3.3792 -0.940113 3.163 -4.89535 -0.0 0.0 -0.0 1.05723 11.0596 -0.894273 -12.0464 16.5919 -72.8358 0.615989 16.9693 -0.0918925 50.768 1.02434 6.1945 0.694365 -1.37538 -5.20523 0.0 0.0 0.0 -21.7986 18.5878 4.98693 -14.3753 0.320227 2.17706 27.3607 1.61879 -3.61203 -6.99799 0.0 0.0 -0.0 0.0 -0.0 24.3684 29.6399 -10.9476 -19.0695 -0.30555 -2.89693 16.4536 -5.50188 2.28304 -15.9354 0.0 0.0 0.0 0.0 0.0 
2808.6 700.597 -511.898 161.151 -70.5244 162.699 -0.79462 -0.085054 -1.48852 -0.793388 0.0098258 -1.49091 -0.792859 0.343145 -1.45093 -0.795781 0.109719 -1.4869 -7.78225 10.8538 6.89715 -7.68463 15.3607 9.14816 -0.0 0.0 -0.0 -2.87182 21.4418 -1.61133 8.33175 -29.702 77.8473 2.1603 -46.9348 0.937952 -29.2837 -1.8901 3.18974 -0.563643 0.149673 -3.70178 -0.0 0.0 -0.0 1.05518 11.4039 -0.853676 -10.27 19.1698 -73.3354 0.598774 16.5213 -0.0869325 50.3272 0.992335 6.148 0.302702 -2.99976 -3.26352 0.0 0.0 0.0 -21.2926 16.1697 5.00729 -17.894 0.314761 2.71681 27.36 5.09465 -3.60032 -5.63048 0.0 0.0 -0.0 0.0 -0.0 24.0377 29.3079 -12.856 -20.8262 -0.284902 -3.16568 19.4361 -9.21727 2.66224 -18.4789 0.0 0.0 0.0 0.0 0.0 
2821.01 703.646 -505.899 162.678 -68.3167 164.202 -0.893925 0.20676 -1.26174 -0.893085 0.286622 -1.24603 -0.898991 0.560302 -1.14928 -0.900642 0.371778 -1.22333 -7.30365 11.2747 7.57093 -7.17111 15.5658 9.84842 -0.0 0.0 -0.0 -3.16361 22.9329 -1.72811 7.06185 -29.1478 77.6281 1.99133 -44.604 0.816852 -28.6918 -1.83647 3.13606 -0.437175 0.316411 -2.78459 -0.0 0.0 -0.0 1.56918 12.932 -1.77207 -7.71679 21.0202 -72.8484 0.599538 16.5412 -0.0871499 49.9792 0.967324 6.11113 0.270193 -3.01031 -3.05241 0.0 0.0 0.0 -18.8358 16.3462 4.11581 -22.2343 0.262409 3.38056 23.7785 7.19708 -3.18798 -6.89841 0.0 0.0 -0.0 0.0 -0.0 23.7984 29.0393 -13.3939 -22.2211 -0.262645 -3.37855 21.0466 -8.03206 2.86004 -18.7461 0.0 0.0 0.0 0.0 0.0 
2831.93 705.169 -497.664 161.764 -67.8596 162.995 -0.953987 0.109713 -1.02292 -0.953422 0.174579 -1.01387 -0.956243 0.399692 -0.94798 -0.957413 0.244968 -0.999201 -9.40819 11.5566 8.08167 -9.30281 16.1917 10.6494 -0.0 0.0 -0.0 -3.43714 23.5263 -1.98381 4.87697 -28.3318 76.8283 1.91982 -43.5574 0.767108 -26.34 -1.62893 2.9174 -0.0412035 -2.99964 -1.54571 -0.0 0.0 -0.0 1.94923 14.7366 -2.39334 -3.54826 22.3222 -73.257 0.598537 16.5151 -0.0868651 50.4796 1.00336 6.16411 -0.119604 -4.4547 -1.07779 0.0 0.0 0.0 -15.9807 15.4087 0.88264 -26.1467 0.172267 3.97407 24.0871 8.14158 -3.22517 -7.16128 0.0 0.0 -0.0 0.0 -0.0 23.2402 28.4383 -13.6476 -24.9924 -0.203076 -3.79961 25.5549 -9.38181 3.39874 -21.1907 0.0 0.0 0.0 0.0 0.0 
2838.77 706.241 -492.866 163.466 -67.5627 164.53 -1.02725 -0.0849741 -0.859882 -1.02684 -0.0300875 -0.863546 -1.02608 0.1673 -0.84772 -1.02709 0.031324 -0.863502 -10.5755 12.9436 7.1757 -10.5871 19.6799 10.301 -0.0 0.0 -0.0 -3.24826 23.1995 -1.79118 2.91379 -27.1675 75.731 1.77755 -41.3616 0.671046 -22.6494 -1.3219 2.55777 -0.0916895 -4.83988 -2.66904 -0.0 0.0 -0.0 2.26559 17.3997 -2.80364 -2.877 24.1058 -73.4602 0.747181 20.3111 -0.133843 52.3441 1.14169 6.35873 -0.412382 -3.99134 1.04631 0.0 0.0 0.0 -13.8092 16.2664 -0.330747 -27.4209 0.134177 4.16592 23.1756 4.90335 -3.11824 -6.92597 0.0 0.0 -0.0 0.0 -0.0 21.2901 26.7166 -13.0987 -21.061 -0.281518 -3.20155 26.3541 -11.5789 3.49961 -27.3524 0.0 0.0 0.0 0.0 0.0 
2851.73 707.891 -485.557 163.336 -67.9482 163.942 -1.12798 -0.240552 -0.679299 -1.12774 -0.19684 -0.693229 -1.1251 -0.0326205 -0.719893 -1.12579 -0.145902 -0.705708 -10.8849 13.4805 8.38063 -10.8598 19.966 11.6423 -0.0 0.0 -0.0 -3.46117 23.0989 -2.10759 1.25904 -26.4787 75.4878 1.67185 -39.6278 0.602397 -20.6461 -1.16517 2.35458 0.106428 -5.66253 -1.68281 -0.0 0.0 -0.0 2.5976 19.166 -3.34114 -2.534 25.7965 -73.8197 0.845892 22.735 -0.170065 53.4588 1.22741 6.47292 -0.559864 -2.57591 2.62886 0.0 0.0 0.0 -13.3633 17.6458 -1.17808 -29.6851 0.0559976 4.5046 22.8321 2.85375 -3.08304 -7.01839 0.0 0.0 -0.0 0.0 -0.0 20.4052 25.4503 -12.6831 -21.8033 -0.269854 -3.31486 28.4248 -13.516 3.74681 -29.2715 0.0 0.0 0.0 0.0 0.0 
2864.22 709.244 -479.277 164.281 -68.5546 164.842 -1.19233 -0.224606 -0.445783 -1.19224 -0.195785 -0.459172 -1.19055 -0.0847063 -0.49193 -1.19085 -0.161333 -0.472379 -10.8113 13.7231 7.16485 -10.8601 21.2168 10.5434 -0.0 0.0 -0.0 -3.48079 22.9437 -2.16784 -0.972264 -26.4869 74.8546 1.565 -37.7821 0.535575 -19.113 -1.0501 2.19548 0.00750456 -7.29682 -3.04704 -0.0 0.0 -0.0 2.70494 20.4358 -3.44676 -2.15265 26.9553 -73.8106 0.965869 25.5689 -0.21917 54.7833 1.33212 6.60642 -0.522189 -1.47812 2.85179 0.0 0.0 0.0 -10.8038 18.6604 -2.79101 -31.3733 -0.0109814 4.755 23.2616 -0.264857 -3.15068 -6.74497 0.0 0.0 -0.0 0.0 -0.0 18.9407 24.9236 -12.4154 -19.5877 -0.300316 -2.97628 29.5702 -15.4526 3.89247 -31.1483 0.0 0.0 0.0 0.0 0.0 
2880.87 709.26 -470.388 160.977 -67.8861 162.052 -1.11191 0.0332464 -0.228818 -1.11188 0.0477393 -0.226239 -1.11206 0.0983038 -0.209283 -1.11211 0.0640178 -0.222182 -9.99594 13.6434 4.92246 -10.1023 22.4047 8.23136 -0.0 0.0 -0.0 -3.58349 23.4557 -2.20059 -3.14982 -25.4257 73.9095 1.46579 -35.9816 0.476029 -18.2345 -0.9861 2.10297 -0.0999677 -7.41308 -3.82348 -0.0 0.0 -0.0 2.33962 19.6817 -2.73572 -0.997906 27.9247 -75.2245 1.11454 28.9028 -0.287241 55.2655 1.37102 6.65443 -0.352224 -0.752956 2.03056 0.0 0.0 0.0 -10.9305 19.2286 -4.37115 -32.6628 -0.0671038 4.94491 24.1868 -1.78019 -3.27181 -7.08623 0.0 0.0 -0.0 0.0 -0.0 17.9649 29.3426 -14.5343 -22.9411 -0.249128 -3.48821 34.0749 -13.984 4.35305 -32.6193 0.0 0.0 0.0 0.0 0.0 
